<svg width="1280" height="720" viewBox="0 0 1280 720" fill="none" xmlns="http://www.w3.org/2000/svg">
  <defs>
    <linearGradient id="bg" x1="124" y1="48" x2="1140" y2="680" gradientUnits="userSpaceOnUse">
      <stop stop-color="#FFF9F2"/>
      <stop offset="0.45" stop-color="#F6EEE2"/>
      <stop offset="1" stop-color="#EAF2F6"/>
    </linearGradient>
    <radialGradient id="glowA" cx="0" cy="0" r="1" gradientUnits="userSpaceOnUse" gradientTransform="translate(252 118) rotate(33.8) scale(384.497 248.511)">
      <stop stop-color="#FB923C" stop-opacity="0.24"/>
      <stop offset="1" stop-color="#FB923C" stop-opacity="0"/>
    </radialGradient>
    <radialGradient id="glowB" cx="0" cy="0" r="1" gradientUnits="userSpaceOnUse" gradientTransform="translate(1036 594) rotate(-145.2) scale(422.921 274.638)">
      <stop stop-color="#10B981" stop-opacity="0.22"/>
      <stop offset="1" stop-color="#10B981" stop-opacity="0"/>
    </radialGradient>
    <filter id="shadow" x="0" y="0" width="1280" height="720" filterUnits="userSpaceOnUse" color-interpolation-filters="sRGB">
      <feFlood flood-opacity="0" result="BackgroundImageFix"/>
      <feColorMatrix in="SourceAlpha" type="matrix" values="0 0 0 0 0 0 0 0 0 0 0 0 0 0 0 0 0 0 127 0" result="hardAlpha"/>
      <feOffset dy="20"/>
      <feGaussianBlur stdDeviation="24"/>
      <feColorMatrix type="matrix" values="0 0 0 0 0.0588235 0 0 0 0 0.0941176 0 0 0 0 0.156863 0 0 0 0.16 0"/>
      <feBlend mode="normal" in2="BackgroundImageFix" result="effect1_dropShadow_1"/>
      <feBlend mode="normal" in="SourceGraphic" in2="effect1_dropShadow_1" result="shape"/>
    </filter>
  </defs>

  <rect width="1280" height="720" rx="36" fill="url(#bg)"/>
  <rect width="1280" height="720" rx="36" fill="url(#glowA)"/>
  <rect width="1280" height="720" rx="36" fill="url(#glowB)"/>

  <g filter="url(#shadow)">
    <rect x="74" y="86" width="486" height="548" rx="32" fill="#0F172A" fill-opacity="0.96"/>
    <rect x="602" y="120" width="530" height="430" rx="32" fill="white" fill-opacity="0.9"/>
    <rect x="1010" y="196" width="168" height="344" rx="34" fill="#0F172A" fill-opacity="0.96"/>
  </g>

  <rect x="108" y="120" width="186" height="42" rx="21" fill="#1F2D45"/>
  <text x="201" y="147" text-anchor="middle" fill="#FDBA74" font-family="Arial, Helvetica, sans-serif" font-size="16" font-weight="700" letter-spacing="4">EXPENSE TRACKER</text>

  <text x="108" y="236" fill="white" font-family="Arial, Helvetica, sans-serif" font-size="54" font-weight="700">
    <tspan x="108" dy="0">Finance tracker</tspan>
    <tspan x="108" dy="62">yang cepat, rapi,</tspan>
    <tspan x="108" dy="62">dan responsif.</tspan>
  </text>

  <text x="108" y="402" fill="#CBD5E1" font-family="Arial, Helvetica, sans-serif" font-size="23">
    <tspan x="108" dy="0">Next.js App Router, Prisma, auth aman, chart arus kas,</tspan>
    <tspan x="108" dy="34">search transaksi, dan insight yang langsung berguna.</tspan>
  </text>

  <rect x="108" y="484" width="138" height="96" rx="24" fill="#12233A"/>
  <rect x="264" y="484" width="138" height="96" rx="24" fill="#12233A"/>
  <rect x="420" y="484" width="104" height="96" rx="24" fill="#12233A"/>
  <text x="132" y="516" fill="#AEBECD" font-family="Arial, Helvetica, sans-serif" font-size="13" font-weight="700">BALANCE</text>
  <text x="132" y="557" fill="#34D399" font-family="Arial, Helvetica, sans-serif" font-size="27" font-weight="700">Rp12.4M</text>
  <text x="288" y="516" fill="#AEBECD" font-family="Arial, Helvetica, sans-serif" font-size="13" font-weight="700">SAVING RATE</text>
  <text x="288" y="557" fill="#F8FAFC" font-family="Arial, Helvetica, sans-serif" font-size="27" font-weight="700">64%</text>
  <text x="444" y="516" fill="#AEBECD" font-family="Arial, Helvetica, sans-serif" font-size="13" font-weight="700">SEARCH</text>
  <text x="444" y="557" fill="#F8FAFC" font-family="Arial, Helvetica, sans-serif" font-size="27" font-weight="700">ON</text>

  <text x="636" y="160" fill="#C2410C" font-family="Arial, Helvetica, sans-serif" font-size="13" font-weight="700" letter-spacing="2">DESKTOP</text>
  <text x="1048" y="236" fill="#FDBA74" font-family="Arial, Helvetica, sans-serif" font-size="12" font-weight="700" letter-spacing="2">MOBILE</text>

  <rect x="636" y="188" width="110" height="82" rx="22" fill="#F8FAFC"/>
  <rect x="762" y="188" width="110" height="82" rx="22" fill="#F8FAFC"/>
  <rect x="888" y="188" width="110" height="82" rx="22" fill="#F8FAFC"/>
  <rect x="1014" y="188" width="84" height="82" rx="22" fill="#F8FAFC"/>
  <text x="654" y="216" fill="#94A3B8" font-family="Arial, Helvetica, sans-serif" font-size="11" font-weight="700">BALANCE</text>
  <text x="654" y="252" fill="#059669" font-family="Arial, Helvetica, sans-serif" font-size="23" font-weight="700">Rp12.4M</text>
  <text x="780" y="216" fill="#94A3B8" font-family="Arial, Helvetica, sans-serif" font-size="11" font-weight="700">INCOME</text>
  <text x="780" y="252" fill="#0F172A" font-family="Arial, Helvetica, sans-serif" font-size="23" font-weight="700">Rp18.9M</text>
  <text x="906" y="216" fill="#94A3B8" font-family="Arial, Helvetica, sans-serif" font-size="11" font-weight="700">EXPENSE</text>
  <text x="906" y="252" fill="#E11D48" font-family="Arial, Helvetica, sans-serif" font-size="23" font-weight="700">Rp6.5M</text>
  <text x="1032" y="216" fill="#94A3B8" font-family="Arial, Helvetica, sans-serif" font-size="11" font-weight="700">FILTER</text>
  <text x="1032" y="252" fill="#0369A1" font-family="Arial, Helvetica, sans-serif" font-size="22" font-weight="700">All</text>

  <rect x="636" y="292" width="462" height="116" rx="28" fill="#F8FAFC"/>
  <text x="660" y="322" fill="#0F172A" font-family="Arial, Helvetica, sans-serif" font-size="18" font-weight="700">Insight cepat</text>
  <rect x="660" y="340" width="130" height="48" rx="18" fill="white"/>
  <rect x="806" y="340" width="130" height="48" rx="18" fill="white"/>
  <rect x="952" y="340" width="122" height="48" rx="18" fill="white"/>
  <text x="678" y="359" fill="#94A3B8" font-family="Arial, Helvetica, sans-serif" font-size="11" font-weight="700">AVERAGE</text>
  <text x="678" y="379" fill="#0F172A" font-family="Arial, Helvetica, sans-serif" font-size="17" font-weight="700">Rp1.2M</text>
  <text x="824" y="359" fill="#94A3B8" font-family="Arial, Helvetica, sans-serif" font-size="11" font-weight="700">30 HARI</text>
  <text x="824" y="379" fill="#0F172A" font-family="Arial, Helvetica, sans-serif" font-size="17" font-weight="700">8 transaksi</text>
  <text x="970" y="359" fill="#94A3B8" font-family="Arial, Helvetica, sans-serif" font-size="11" font-weight="700">RATE</text>
  <text x="970" y="379" fill="#059669" font-family="Arial, Helvetica, sans-serif" font-size="17" font-weight="700">64%</text>

  <rect x="636" y="430" width="462" height="88" rx="28" fill="#F8FAFC"/>
  <text x="660" y="460" fill="#0F172A" font-family="Arial, Helvetica, sans-serif" font-size="18" font-weight="700">Pencarian & filter</text>
  <rect x="660" y="476" width="234" height="24" rx="12" fill="white"/>
  <rect x="908" y="476" width="76" height="24" rx="12" fill="white"/>
  <rect x="996" y="476" width="78" height="24" rx="12" fill="#0F172A"/>
  <text x="680" y="493" fill="#94A3B8" font-family="Arial, Helvetica, sans-serif" font-size="11">Cari judul, kategori, atau catatan</text>
  <text x="946" y="493" text-anchor="middle" fill="#64748B" font-family="Arial, Helvetica, sans-serif" font-size="11" font-weight="700">Semua</text>
  <text x="1035" y="493" text-anchor="middle" fill="white" font-family="Arial, Helvetica, sans-serif" font-size="11" font-weight="700">Expense</text>

  <rect x="1040" y="236" width="108" height="18" rx="9" fill="#1F2D45"/>
  <rect x="1040" y="276" width="108" height="162" rx="24" fill="white"/>
  <rect x="1054" y="294" width="80" height="18" rx="9" fill="#F8FAFC"/>
  <rect x="1054" y="326" width="80" height="34" rx="14" fill="#F8FAFC"/>
  <rect x="1054" y="372" width="80" height="16" rx="8" fill="#10B981" fill-opacity="0.18"/>
  <rect x="1054" y="396" width="52" height="16" rx="8" fill="#F43F5E" fill-opacity="0.18"/>
  <path d="M1058 442C1070 434 1083 431 1096 424C1105 420 1116 420 1128 406" stroke="#0F172A" stroke-width="3" stroke-linecap="round"/>
  <circle cx="1058" cy="442" r="4" fill="#0F172A"/>
  <circle cx="1098" cy="424" r="4" fill="#0F172A"/>
  <circle cx="1128" cy="406" r="4" fill="#0F172A"/>
</svg>
